# xmcd
# 
# Track frame offsets:
#   150
#   18022
#   30417
#   47054
#   61734
#   71520
#   85625
#   105638
#   117919
#   136154
#   148587
#   161504
#   182080
#   199754
#   211970
#   225419
# 
# Disc length: 3189 seconds
# 
# Revision: 3
# Processed by: cddbd v1.5.2PL0 Copyright (c) Steve Scherf et al.
# Submitted via: Synapstar 1.0 
# 
DISCID=c80c7310
DTITLE=Various Artist - SGB0041
DYEAR=1900
DGENRE=Country
TTITLE0=Johnny Cash - A Boy Named Sue
TTITLE1=Marty Robbins - A White Sport Coat
TTITLE2=B.J. Thomas - Another Somebody Done Something Wrong Song
TTITLE3=Jimmy Dean - Big Bad John
TTITLE4=Roger Miller - Chug-A-Lug
TTITLE5=Glen Campbell - Gentle On My Mind
TTITLE6=Ray Charles - I Can't Stop Loving You
TTITLE7=Johnny Cash - I Walk The Line
TTITLE8=Ray Stevens - Ahab The Arab
TTITLE9=Eddie Arnold - I Want To Go With You
TTITLE10=Johnny Rivers - Midnight Special
TTITLE11=Bobbie Gentry - Ode To Billy Joe
TTITLE12=Ray Stevens - Along Came Jones
TTITLE13=Freddy Fender - Before The Next Teardrop Falls
TTITLE14=Dusty Springfield - You Don't Have To Say You Love Me
TTITLE15=Eddie Arnold - Make The World Go Away
EXTD=MediaType: Karaoke CD+G Producer: Sweet Georgia Brown
EXTT0=
EXTT1=
EXTT2=
EXTT3=
EXTT4=
EXTT5=
EXTT6=
EXTT7=
EXTT8=
EXTT9=
EXTT10=
EXTT11=
EXTT12=
EXTT13=
EXTT14=
EXTT15=
PLAYORDER=
